@startuml Demand state
title Demand state
!theme cerulean

skinparam maxMessageSize 150
skinparam defaultTextAlignment center
skinparam noteTextAlignment left
skinparam StateFontColor Black
skinparam backgroundColor White

state "No demand" as no: volume: 0\n \
price: 0\n \
isMatched: false
state "Unlocked" as un: volume: x>0\n \
price: y>0\n \
isMatched: false
state "Locked" as lo: volume: x>0\n \
price: y>0\n \
isMatched: true

[*] -> no: Create your DID
no --> un: Submit new demand
un --> un: Update demand
un --> no: Cancel demand
un --> lo: Match proposed
lo --> lo: Match accepted
lo --> un: Match rejected / cancelled / deleted

@enduml