@startuml Offer state
title Offer state
!theme cerulean

skinparam maxMessageSize 150
skinparam defaultTextAlignment center
skinparam noteTextAlignment left
skinparam StateFontColor Black
skinparam backgroundColor White

state "No offer" as no: volume: 0\n \
remainingVolume: 0\n \
price: 0\n \
matches: 0
state "Unlocked" as un: volume: x>0\n \
remainingVolume: x>0\n \
price: y>0\n \
matches: 0
state "Locked" as lo: volume: x>0\n \
remainingVolume: z>=0\n \
price: y>0\n \
matches: t>0

[*] -> no: Create new DID
no --> un: Submit new offer
un --> un: Update offer
un --> no: Cancel offer
un --> lo: Match proposed
lo --> lo: Match proposed
lo --> lo: Match accepted
lo --> un: Match rejected / cancelled / deleted

@enduml